<svg xmlns="http://www.w3.org/2000/svg" viewBox="0 0 857.61 199.29"><defs><style>.cls-1{fill:#455a64;}</style></defs><title>whatsapp-link-logo--full</title><g id="Capa_2" data-name="Capa 2"><g id="WhatsApp_Logo" data-name="WhatsApp Logo"><path class="cls-1" d="M99.58,0A98.81,98.81,0,0,0,14,148.11L0,199.29l52.35-13.73a98.78,98.78,0,0,0,47.19,12h0A98.79,98.79,0,0,0,99.58,0Zm0,180.9h0a82.08,82.08,0,0,1-41.78-11.44l-3-1.78-31.07,8.15L32,145.54l-1.95-3.11A82.08,82.08,0,1,1,99.58,180.9Zm45-61.48c-2.46-1.23-14.6-7.2-16.86-8s-3.9-1.24-5.55,1.23-6.37,8-7.81,9.68-2.88,1.85-5.35.62-10.42-3.85-19.84-12.25a74.23,74.23,0,0,1-13.73-17.1c-1.44-2.47-.15-3.8,1.09-5s2.46-2.88,3.7-4.32a17,17,0,0,0,2.46-4.12,4.54,4.54,0,0,0-.2-4.32C81.89,74.55,77,62.41,74.9,57.47s-4-4.17-5.55-4.24-3.09-.09-4.73-.09A9.06,9.06,0,0,0,58,56.23c-2.26,2.47-8.64,8.44-8.64,20.58s8.85,23.88,10.08,25.53,17.4,26.57,42.15,37.26a143,143,0,0,0,14.07,5.2,33.85,33.85,0,0,0,15.54,1c4.74-.71,14.6-6,16.65-11.73s2.06-10.7,1.44-11.73S147.07,120.66,144.6,119.42Zm174.7-1.5H319L302.67,51.87H282.94l-16.65,65.24H266L250.86,51.87H229.79l25.37,95.85H276.5l16-65.25h.27L309,147.72h20.94l25.77-95.85H335ZM420,84.28a18.65,18.65,0,0,0-7.71-5.77,32.57,32.57,0,0,0-12.55-2.07,24.94,24.94,0,0,0-11,2.75A22,22,0,0,0,379.43,88H379V51.87H360v95.85H379V111.34q0-10.61,3.49-15.24t11.27-4.63q6.84,0,9.53,4.23T406,108.52v39.2h19.06V105a56,56,0,0,0-1.14-11.75A22.43,22.43,0,0,0,420,84.28Zm78.51,48V96.17q0-6.32-2.82-10.14a19.29,19.29,0,0,0-7.24-6,32.87,32.87,0,0,0-9.8-2.89,78.16,78.16,0,0,0-10.6-.73,57.5,57.5,0,0,0-11.47,1.14,32.71,32.71,0,0,0-10.28,3.82,22.82,22.82,0,0,0-7.51,7.12,22.11,22.11,0,0,0-3.36,11.14h19.06Q455,94,458.21,91.6t8.86-2.41a32.35,32.35,0,0,1,4.76.33,10.49,10.49,0,0,1,3.89,1.35,7.31,7.31,0,0,1,2.69,2.82,10.09,10.09,0,0,1,1,4.89,5.15,5.15,0,0,1-1.74,4.5,12.79,12.79,0,0,1-5.1,2.35,49.49,49.49,0,0,1-7.38,1.2q-4.17.42-8.46,1.08a81.28,81.28,0,0,0-8.52,1.82,23.92,23.92,0,0,0-7.52,3.42,17.45,17.45,0,0,0-5.37,6.11,20.33,20.33,0,0,0-2.07,9.73,21.73,21.73,0,0,0,1.81,9.26,17.44,17.44,0,0,0,5,6.45,21.27,21.27,0,0,0,7.52,3.76,34.17,34.17,0,0,0,9.26,1.21,43.14,43.14,0,0,0,12.61-1.88A24.9,24.9,0,0,0,480.22,141a29.32,29.32,0,0,0,.47,3.42,26.09,26.09,0,0,0,.87,3.29h19.33a16.2,16.2,0,0,1-1.88-6.44A72.2,72.2,0,0,1,498.47,132.28Zm-19.06-11.42a36.7,36.7,0,0,1-.33,4.3,14.39,14.39,0,0,1-1.81,5.31A12.54,12.54,0,0,1,472.7,135q-3.07,1.89-8.72,1.89a23.85,23.85,0,0,1-4.43-.41,10.89,10.89,0,0,1-3.76-1.41,7.27,7.27,0,0,1-2.55-2.75,9,9,0,0,1-.94-4.29,9.32,9.32,0,0,1,.94-4.43,8.7,8.7,0,0,1,2.49-2.89,12.67,12.67,0,0,1,3.62-1.82,35.87,35.87,0,0,1,4.23-1.07c1.52-.26,3-.49,4.56-.67s3-.41,4.36-.67a32.13,32.13,0,0,0,3.9-1,8.42,8.42,0,0,0,3-1.68ZM534,57.51H515v20.8H503.44V91.06H515V132a17.77,17.77,0,0,0,1.74,8.46,12.53,12.53,0,0,0,4.76,5,20.1,20.1,0,0,0,7,2.35,55.91,55.91,0,0,0,8.38.6c1.89,0,3.81,0,5.78-.13a45.11,45.11,0,0,0,5.36-.54V133a23.93,23.93,0,0,1-2.82.4c-1,.09-2,.14-3.08.14q-4.83,0-6.45-1.61c-1.07-1.08-1.6-3.22-1.6-6.45V91.06h14V78.31H534Zm78.77,59.8a17.29,17.29,0,0,0-5-5.5,26.84,26.84,0,0,0-7.05-3.57,83.08,83.08,0,0,0-8.12-2.27q-4-.94-7.91-1.75a61.85,61.85,0,0,1-6.92-1.81A14.32,14.32,0,0,1,573,99.79a5.2,5.2,0,0,1-1.88-4.16,5.11,5.11,0,0,1,1.07-3.42,7.12,7.12,0,0,1,2.62-1.95,11.37,11.37,0,0,1,3.42-.87,31.43,31.43,0,0,1,3.49-.2,19.13,19.13,0,0,1,8.86,1.94c2.5,1.3,3.89,3.79,4.15,7.45h18.12a22.75,22.75,0,0,0-3.29-10.67,21.7,21.7,0,0,0-6.91-6.78,28.93,28.93,0,0,0-9.46-3.62,54.68,54.68,0,0,0-10.93-1.07,59.65,59.65,0,0,0-11,1,30.35,30.35,0,0,0-9.66,3.49,19.29,19.29,0,0,0-6.92,6.78,20.94,20.94,0,0,0-2.62,11,14.87,14.87,0,0,0,1.89,7.72,16.19,16.19,0,0,0,5,5.23,27.7,27.7,0,0,0,7,3.36c2.64.86,5.34,1.59,8.11,2.22a112.05,112.05,0,0,1,15.91,4.3q5.7,2.15,5.71,6.44a7,7,0,0,1-1.21,4.22,9.06,9.06,0,0,1-3,2.69,14.12,14.12,0,0,1-4,1.47,20,20,0,0,1-4.23.48,21.6,21.6,0,0,1-5.43-.68,13.87,13.87,0,0,1-4.63-2.08,11.12,11.12,0,0,1-3.29-3.62,10.46,10.46,0,0,1-1.28-5.31H550.4a23.52,23.52,0,0,0,3.16,11.62,23,23,0,0,0,7.38,7.45,31.27,31.27,0,0,0,10.27,4,57.83,57.83,0,0,0,11.8,1.21,60,60,0,0,0,11.62-1.14,29.2,29.2,0,0,0,10.13-4,21.9,21.9,0,0,0,7.18-7.45,22.18,22.18,0,0,0,2.75-11.48A16.18,16.18,0,0,0,612.81,117.31Zm37.85-65.44-36.23,95.85h21.2l7.51-21.35H679l7.24,21.35H708.1L672.27,51.87Zm-2,58.8,12.48-35.18h.27l12.08,35.18ZM774,87.71a29.12,29.12,0,0,0-9.79-8.19,30,30,0,0,0-14.09-3.08A27.15,27.15,0,0,0,738.3,79a21,21,0,0,0-8.86,8.2h-.27V78.31H711.05V172h19.07V139.13h.25a22.45,22.45,0,0,0,8.94,7.71,26.86,26.86,0,0,0,11.87,2.63,28.75,28.75,0,0,0,13.35-3,28.22,28.22,0,0,0,9.53-7.92,34.09,34.09,0,0,0,5.71-11.41,48.2,48.2,0,0,0,1.88-13.43,53.29,53.29,0,0,0-1.88-14.16A34.71,34.71,0,0,0,774,87.71Zm-12.2,33.7a20.17,20.17,0,0,1-2.76,7,15.48,15.48,0,0,1-25.9,0,21,21,0,0,1-2.82-7,38.75,38.75,0,0,1-.87-8.19,42,42,0,0,1,.8-8.32A21.05,21.05,0,0,1,733,97.77a15.49,15.49,0,0,1,5.1-5,14.65,14.65,0,0,1,7.85-2,14.38,14.38,0,0,1,7.71,2,15.94,15.94,0,0,1,5.17,5.1,21.81,21.81,0,0,1,2.88,7.18,38,38,0,0,1,.87,8.19A42.26,42.26,0,0,1,761.79,121.41Zm93.94-21.82A34.71,34.71,0,0,0,850,87.71a29,29,0,0,0-9.79-8.19,30.06,30.06,0,0,0-14.1-3.08A27.11,27.11,0,0,0,814.26,79a21,21,0,0,0-8.86,8.2h-.26V78.31H787V172h19.06V139.13h.27a22.4,22.4,0,0,0,8.92,7.71,27,27,0,0,0,11.88,2.63,28.82,28.82,0,0,0,13.36-3,28.28,28.28,0,0,0,9.52-7.92,34.09,34.09,0,0,0,5.71-11.41,47.47,47.47,0,0,0,1.88-13.43A52.49,52.49,0,0,0,855.73,99.59Zm-18,21.82a20,20,0,0,1-2.75,7,16.13,16.13,0,0,1-20.73,4.9,14.91,14.91,0,0,1-5.17-4.9,21.25,21.25,0,0,1-2.82-7,38.75,38.75,0,0,1-.87-8.19,42.77,42.77,0,0,1,.8-8.32A21.05,21.05,0,0,1,809,97.77a15.49,15.49,0,0,1,5.1-5,14.62,14.62,0,0,1,7.85-2,14.38,14.38,0,0,1,7.71,2,15.94,15.94,0,0,1,5.17,5.1,21.61,21.61,0,0,1,2.89,7.18,38.68,38.68,0,0,1,.87,8.19A41.51,41.51,0,0,1,837.74,121.41Z"/></g></g></svg>